; NON-PLATED HOLES START AT T1
; THROUGH (PLATED) HOLES START AT T100
M48
INCH
T100C0.036000
T101C0.035000
T102C0.038000
%
T100
X013902Y004692
X019902Y004692
X010902Y004692
X015902Y010692
X011902Y004692
X011902Y010692
X017902Y010692
X015902Y004692
X014902Y004692
X021902Y004692
X023902Y004692
X020902Y010692
X010902Y010692
X021902Y010692
X009902Y010692
X012902Y004692
X018902Y010692
X016902Y010692
X018902Y004692
X016902Y004692
X009902Y004692
X023902Y010692
X013902Y010692
X014902Y010692
X020902Y004692
X019902Y010692
X022902Y010692
X012902Y010692
X017902Y004692
X022902Y004692
T101
X004902Y016692
X012902Y014692
X000902Y012692
X004902Y012692
X005902Y012692
X009902Y012692
X013902Y014692
X018902Y008692
X004902Y017692
X017902Y008692
T102
X020902Y013692
X017902Y002692
X008902Y015692
X021902Y002692
X019902Y013692
X008902Y017692
X023902Y002692
X022902Y002692
X008902Y016692
X007902Y015692
X020902Y002692
X016902Y002692
X002902Y017692
X024902Y002692
X012902Y002692
X002902Y016692
X013902Y016692
X017902Y013692
X007902Y016692
X013902Y002692
X016902Y013692
X015902Y016692
X011902Y016692
X012902Y016692
X018902Y002692
X018902Y013692
X002902Y015692
X015902Y002692
X014902Y002692
X011902Y002692
X007902Y017692
X014902Y016692
X015902Y013692
X019902Y002692
T00
M30
