<?xml version='1.0' encoding='UTF-8' standalone='no'?>
<!-- Created with Fritzing (http://www.fritzing.org/) -->
<svg xmlns="http://www.w3.org/2000/svg" height="1.9685in" y="0in" version="1.2" x="0in" width="2.75591in"  baseProfile="tiny" viewBox="0 0 198.425 141.732" xmlns:svg="http://www.w3.org/2000/svg">
 <g partID="854538340">
  <g id="board" >
   <rect stroke-width="0.5" stroke="black" height="141.156" id="boardoutline" y="0.288" fill-opacity="0.5" x="0.288" width="197.849"  fill="none"/>
  </g>
 </g>
 <g partID="854538391">
  <g transform="translate(124.939,71.5862)">
   <g id="copper1" >
    <g id="copper0" >
     <rect stroke-width="1.44" height="3.96" stroke="black" id="rect11" y="5.58" x="1.98" width="3.96"  fill="none"/>
     <circle stroke-width="1.44" stroke="black" id="connector0pin" cy="7.56" cx="3.96"  r="1.98" fill="none"/>
     <circle stroke-width="1.44" stroke="black" id="connector1pin" cy="7.56" cx="11.16"  r="1.98" fill="none"/>
    </g>
   </g>
  </g>
 </g>
 <g partID="854538401">
  <g transform="translate(61.9387,33.7862)">
   <g transform="matrix(-1,0,0,-1,0,0)">
    <g id="copper1" >
     <g id="copper0" >
      <circle stroke-width="1.44" stroke="black" id="connector0pin" cy="5.04" cx="5.04"  r="2.088" fill="none"/>
      <circle stroke-width="1.44" stroke="black" id="connector1pin" cy="12.24" cx="5.04"  r="2.088" fill="none"/>
      <circle stroke-width="1.44" stroke="black" id="connector2pin" cy="19.44" cx="5.04"  r="2.088" fill="none"/>
     </g>
    </g>
   </g>
  </g>
 </g>
 <g partID="854538411">
  <g transform="translate(69.1387,33.7862)">
   <g transform="matrix(-1,0,0,-1,0,0)">
    <g id="copper1" >
     <g id="copper0" >
      <circle stroke-width="1.44" stroke="black" id="connector0pin" cy="5.04" cx="5.04"  r="2.088" fill="none"/>
      <circle stroke-width="1.44" stroke="black" id="connector1pin" cy="12.24" cx="5.04"  r="2.088" fill="none"/>
      <circle stroke-width="1.44" stroke="black" id="connector2pin" cy="19.44" cx="5.04"  r="2.088" fill="none"/>
     </g>
    </g>
   </g>
  </g>
 </g>
 <g partID="854538421">
  <g transform="translate(109.459,48.1862)">
   <g transform="matrix(0,-1,1,0,0,0)">
    <g id="copper1" >
     <g id="copper0" >
      <circle stroke-width="1.44" stroke="black" id="connector0pin" cy="5.04" cx="5.04"  r="2.088" fill="none"/>
      <circle stroke-width="1.44" stroke="black" id="connector1pin" cy="12.24" cx="5.04"  r="2.088" fill="none"/>
      <circle stroke-width="1.44" stroke="black" id="connector2pin" cy="19.44" cx="5.04"  r="2.088" fill="none"/>
      <circle stroke-width="1.44" stroke="black" id="connector3pin" cy="26.64" cx="5.04"  r="2.088" fill="none"/>
      <circle stroke-width="1.44" stroke="black" id="connector4pin" cy="33.84" cx="5.04"  r="2.088" fill="none"/>
      <circle stroke-width="1.44" stroke="black" id="connector5pin" cy="41.04" cx="5.04"  r="2.088" fill="none"/>
     </g>
    </g>
   </g>
  </g>
 </g>
 <g partID="854538431">
  <g transform="translate(25.9387,33.7862)">
   <g transform="matrix(-1,0,0,-1,0,0)">
    <g id="copper1" >
     <g id="copper0" >
      <circle stroke-width="1.44" stroke="black" id="connector0pin" cy="5.04" cx="5.04"  r="2.088" fill="none"/>
      <circle stroke-width="1.44" stroke="black" id="connector1pin" cy="12.24" cx="5.04"  r="2.088" fill="none"/>
      <circle stroke-width="1.44" stroke="black" id="connector2pin" cy="19.44" cx="5.04"  r="2.088" fill="none"/>
     </g>
    </g>
   </g>
  </g>
 </g>
 <g partID="854538441">
  <g transform="translate(60.4986,111.546)">
   <g transform="matrix(0,-1,1,0,0,0)">
    <g id="copper1" >
     <g id="copper0" >
      <circle stroke-width="1.224" stroke="black" id="connector16pad" cy="10.8" cx="3.6"  r="1.908" fill="none"/>
      <rect stroke-width="1.224" stroke="black" height="3.816" y="8.892" x="1.692" width="3.814"  fill="none"/>
      <circle stroke-width="1.224" stroke="black" id="connector17pad" cy="18" cx="3.6"  r="1.908" fill="none"/>
      <circle stroke-width="1.224" stroke="black" id="connector18pad" cy="25.2" cx="3.6"  r="1.908" fill="none"/>
      <circle stroke-width="1.224" stroke="black" id="connector19pad" cy="32.4" cx="3.6"  r="1.908" fill="none"/>
      <circle stroke-width="1.224" stroke="black" id="connector20pad" cy="39.6" cx="3.6"  r="1.908" fill="none"/>
      <circle stroke-width="1.224" stroke="black" id="connector21pad" cy="46.8" cx="3.6"  r="1.908" fill="none"/>
      <circle stroke-width="1.224" stroke="black" id="connector22pad" cy="54" cx="3.6"  r="1.908" fill="none"/>
      <circle stroke-width="1.224" stroke="black" id="connector23pad" cy="61.2" cx="3.6"  r="1.908" fill="none"/>
      <circle stroke-width="1.224" stroke="black" id="connector24pad" cy="68.4" cx="3.6"  r="1.908" fill="none"/>
      <circle stroke-width="1.224" stroke="black" id="connector25pad" cy="75.6" cx="3.6"  r="1.908" fill="none"/>
      <circle stroke-width="1.224" stroke="black" id="connector26pad" cy="82.8" cx="3.6"  r="1.908" fill="none"/>
      <circle stroke-width="1.224" stroke="black" id="connector27pad" cy="90" cx="3.6"  r="1.908" fill="none"/>
      <circle stroke-width="1.224" stroke="black" id="connector28pad" cy="97.2" cx="3.6"  r="1.908" fill="none"/>
      <circle stroke-width="1.224" stroke="black" id="connector29pad" cy="104.4" cx="3.6"  r="1.908" fill="none"/>
      <circle stroke-width="1.224" stroke="black" id="connector30pad" cy="111.6" cx="3.6"  r="1.908" fill="none"/>
      <circle stroke-width="1.224" stroke="black" id="connector31pad" cy="10.8" cx="46.8"  r="1.908" fill="none"/>
      <circle stroke-width="1.224" stroke="black" id="connector32pad" cy="18" cx="46.8"  r="1.908" fill="none"/>
      <circle stroke-width="1.224" stroke="black" id="connector33pad" cy="25.2" cx="46.8"  r="1.908" fill="none"/>
      <circle stroke-width="1.224" stroke="black" id="connector34pad" cy="32.4" cx="46.8"  r="1.908" fill="none"/>
      <circle stroke-width="1.224" stroke="black" id="connector35pad" cy="39.6" cx="46.8"  r="1.908" fill="none"/>
      <circle stroke-width="1.224" stroke="black" id="connector36pad" cy="46.8" cx="46.8"  r="1.908" fill="none"/>
      <circle stroke-width="1.224" stroke="black" id="connector37pad" cy="54" cx="46.8"  r="1.908" fill="none"/>
      <circle stroke-width="1.224" stroke="black" id="connector38pad" cy="61.2" cx="46.8"  r="1.908" fill="none"/>
      <circle stroke-width="1.224" stroke="black" id="connector39pad" cy="68.4" cx="46.8"  r="1.908" fill="none"/>
      <circle stroke-width="1.224" stroke="black" id="connector40pad" cy="75.6" cx="46.8"  r="1.908" fill="none"/>
      <circle stroke-width="1.224" stroke="black" id="connector41pad" cy="82.8" cx="46.8"  r="1.908" fill="none"/>
      <circle stroke-width="1.224" stroke="black" id="connector42pad" cy="90" cx="46.8"  r="1.908" fill="none"/>
      <circle stroke-width="1.224" stroke="black" id="connector43pad" cy="97.2" cx="46.8"  r="1.908" fill="none"/>
      <circle stroke-width="1.224" stroke="black" id="connector44pad" cy="104.4" cx="46.8"  r="1.908" fill="none"/>
      <circle stroke-width="1.224" stroke="black" id="connector45pad" cy="111.6" cx="46.8"  r="1.908" fill="none"/>
     </g>
    </g>
   </g>
  </g>
 </g>
 <g partID="854538451">
  <g transform="translate(3.79872,47.2502)">
   <g id="copper1" >
    <!-- <rect width="55" x="10" y="15.5" fill="none" height="55" stroke="rgb(255, 191, 0)" stroke-width="20" />  -->
    <circle stroke-width="1.44" stroke="black" id="connector0pin" cy="3.096" cx="2.7"  r="1.98" fill="none"/>
    <circle stroke-width="1.44" stroke="black" id="connector1pin" cy="3.096" cx="31.5"  r="1.98" fill="none"/>
   </g>
  </g>
 </g>
 <g partID="854538461">
  <g transform="translate(39.7987,47.2502)">
   <g id="copper1" >
    <!-- <rect width="55" x="10" y="15.5" fill="none" height="55" stroke="rgb(255, 191, 0)" stroke-width="20" />  -->
    <circle stroke-width="1.44" stroke="black" id="connector0pin" cy="3.096" cx="2.7"  r="1.98" fill="none"/>
    <circle stroke-width="1.44" stroke="black" id="connector1pin" cy="3.096" cx="31.5"  r="1.98" fill="none"/>
   </g>
  </g>
 </g>
 <g partID="854538471">
  <g transform="translate(80.6587,127.386)">
   <g transform="matrix(0,-1,1,0,0,0)">
    <g id="copper1" >
     <g id="copper0" >
      <circle stroke-width="1.44" stroke="black" id="connector0pin" cy="5.04" cx="5.04"  r="2.088" fill="none"/>
      <circle stroke-width="1.44" stroke="black" id="connector1pin" cy="12.24" cx="5.04"  r="2.088" fill="none"/>
      <circle stroke-width="1.44" stroke="black" id="connector2pin" cy="19.44" cx="5.04"  r="2.088" fill="none"/>
      <circle stroke-width="1.44" stroke="black" id="connector3pin" cy="26.64" cx="5.04"  r="2.088" fill="none"/>
      <circle stroke-width="1.44" stroke="black" id="connector4pin" cy="33.84" cx="5.04"  r="2.088" fill="none"/>
      <circle stroke-width="1.44" stroke="black" id="connector5pin" cy="41.04" cx="5.04"  r="2.088" fill="none"/>
      <circle stroke-width="1.44" stroke="black" id="connector6pin" cy="48.24" cx="5.04"  r="2.088" fill="none"/>
      <circle stroke-width="1.44" stroke="black" id="connector7pin" cy="55.44" cx="5.04"  r="2.088" fill="none"/>
      <circle stroke-width="1.44" stroke="black" id="connector8pin" cy="62.64" cx="5.04"  r="2.088" fill="none"/>
      <circle stroke-width="1.44" stroke="black" id="connector9pin" cy="69.84" cx="5.04"  r="2.088" fill="none"/>
      <circle stroke-width="1.44" stroke="black" id="connector10pin" cy="77.04" cx="5.04"  r="2.088" fill="none"/>
      <circle stroke-width="1.44" stroke="black" id="connector11pin" cy="84.24" cx="5.04"  r="2.088" fill="none"/>
      <circle stroke-width="1.44" stroke="black" id="connector12pin" cy="91.44" cx="5.04"  r="2.088" fill="none"/>
      <circle stroke-width="1.44" stroke="black" id="connector13pin" cy="98.64" cx="5.04"  r="2.088" fill="none"/>
     </g>
    </g>
   </g>
  </g>
 </g>
 <g partID="854538481">
  <g transform="translate(88.9387,28.3862)">
   <g id="copper1" >
    <g id="copper0" >
     <rect stroke-width="1.44" height="3.96" stroke="black" id="rect11" y="5.58" x="1.98" width="3.96"  fill="none"/>
     <circle stroke-width="1.44" stroke="black" id="connector0pin" cy="7.56" cx="3.96"  r="1.98" fill="none"/>
     <circle stroke-width="1.44" stroke="black" id="connector1pin" cy="7.56" cx="11.16"  r="1.98" fill="none"/>
    </g>
   </g>
  </g>
 </g>
 <g partID="854545611">
  <g transform="translate(80.6587,26.5862)">
   <g transform="matrix(0,-1,1,0,0,0)">
    <g id="copper1" >
     <g id="copper0" >
      <circle stroke-width="1.44" stroke="black" id="connector0pin" cy="5.04" cx="5.04"  r="2.088" fill="none"/>
      <circle stroke-width="1.44" stroke="black" id="connector1pin" cy="12.24" cx="5.04"  r="2.088" fill="none"/>
      <circle stroke-width="1.44" stroke="black" id="connector2pin" cy="19.44" cx="5.04"  r="2.088" fill="none"/>
      <circle stroke-width="1.44" stroke="black" id="connector3pin" cy="26.64" cx="5.04"  r="2.088" fill="none"/>
      <circle stroke-width="1.44" stroke="black" id="connector4pin" cy="33.84" cx="5.04"  r="2.088" fill="none"/>
     </g>
    </g>
   </g>
  </g>
 </g>
 <g partID="854548371">
  <g transform="translate(42.8587,10.3862)">
   <g transform="matrix(0,1,-1,0,0,0)">
    <g id="copper1" >
     <g id="copper0" >
      <rect stroke-width="1.44" height="3.96" stroke="black" id="rect11" y="5.58" x="1.98" width="3.96"  fill="none"/>
      <circle stroke-width="1.44" stroke="black" id="connector0pin" cy="7.56" cx="3.96"  r="1.98" fill="none"/>
      <circle stroke-width="1.44" stroke="black" id="connector1pin" cy="7.56" cx="11.16"  r="1.98" fill="none"/>
     </g>
    </g>
   </g>
  </g>
 </g>
 <g partID="854543980">
  <line x1="61.9307" stroke-width="1.728" y1="28.7462" stroke="black" stroke-linecap="round" x2="59.0667" y2="28.7462"/>
 </g>
 <g partID="854548430">
  <line x1="35.3306" stroke-width="1.728" y1="28.7623" stroke="black" stroke-linecap="round" x2="23.0667" y2="28.7486"/>
 </g>
 <g partID="854544330">
  <line x1="54.7307" stroke-width="1.728" y1="28.7478" stroke="black" stroke-linecap="round" x2="35.3306" y2="28.7623"/>
 </g>
 <g partID="854545220">
  <line x1="71.3467" stroke-width="1.728" y1="43.243" stroke="black" stroke-linecap="round" x2="99.9368" y2="43.243"/>
 </g>
 <g partID="854544870">
  <line x1="99.9368" stroke-width="1.728" y1="43.243" stroke="black" stroke-linecap="round" x2="100.053" y2="38.0057"/>
 </g>
 <g partID="854544520">
  <line x1="65.0682" stroke-width="1.728" y1="30.6853" stroke="black" stroke-linecap="round" x2="71.3467" y2="43.243"/>
 </g>
 <g partID="854546000">
  <line x1="101.555" stroke-width="1.728" y1="34.4896" stroke="black" stroke-linecap="round" x2="112.966" y2="23.0792"/>
 </g>
 <g partID="854546600">
  <line x1="22.4377" stroke-width="1.728" y1="20.0192" stroke="black" stroke-linecap="round" x2="35.3306" y2="7.2269"/>
 </g>
 <g partID="854546730">
  <line x1="35.3306" stroke-width="1.728" y1="7.2269" stroke="black" stroke-linecap="round" x2="157.86" y2="7.2269"/>
 </g>
 <g partID="854546840">
  <line x1="157.86" stroke-width="1.728" y1="7.2269" stroke="black" stroke-linecap="round" x2="157.86" y2="50.2977"/>
 </g>
 <g partID="854549660">
  <line x1="157.86" stroke-width="1.728" y1="50.2977" stroke="black" stroke-linecap="round" x2="151.45" y2="62.8786"/>
 </g>
 <g partID="854547400">
  <line x1="121.843" stroke-width="1.728" y1="28.7623" stroke="black" stroke-linecap="round" x2="121.843" y2="14.2816"/>
 </g>
 <g partID="854547700">
  <line x1="107.363" stroke-width="1.728" y1="50.2977" stroke="black" stroke-linecap="round" x2="107.363" y2="35.817"/>
 </g>
 <g partID="854547850">
  <line x1="107.363" stroke-width="1.728" y1="35.817" stroke="black" stroke-linecap="round" x2="121.843" y2="28.7623"/>
 </g>
 <g partID="854547550">
  <line x1="121.843" stroke-width="1.728" y1="50.2977" stroke="black" stroke-linecap="round" x2="107.363" y2="50.2977"/>
 </g>
 <g partID="854547100">
  <line x1="78.4014" stroke-width="1.728" y1="14.2816" stroke="black" stroke-linecap="round" x2="66.0317" y2="20.5644"/>
 </g>
 <g partID="854546950">
  <line x1="115.448" stroke-width="1.728" y1="62.8778" stroke="black" stroke-linecap="round" x2="121.843" y2="50.2977"/>
 </g>
 <g partID="854547250">
  <line x1="121.843" stroke-width="1.728" y1="14.2816" stroke="black" stroke-linecap="round" x2="78.4014" y2="14.2816"/>
 </g>
 <g partID="854548840">
  <line x1="35.3306" stroke-width="1.728" y1="28.7623" stroke="black" stroke-linecap="round" x2="35.3078" y2="23.6062"/>
 </g>
 <g partID="854553190">
  <line x1="94.4317" stroke-width="1.728" y1="120.813" stroke="black" stroke-linecap="round" x2="105.817" y2="109.428"/>
 </g>
 <g partID="854553260">
  <line x1="101.632" stroke-width="1.728" y1="120.813" stroke="black" stroke-linecap="round" x2="113.017" y2="109.428"/>
 </g>
 <g partID="854553420">
  <line x1="108.832" stroke-width="1.728" y1="120.813" stroke="black" stroke-linecap="round" x2="120.217" y2="109.428"/>
 </g>
 <g partID="854553490">
  <line x1="129.868" stroke-width="1.728" y1="120.407" stroke="black" stroke-linecap="round" x2="135.161" y2="109.821"/>
 </g>
 <g partID="854553560">
  <line x1="178.329" stroke-width="1.728" y1="120.407" stroke="black" stroke-linecap="round" x2="173.036" y2="109.821"/>
 </g>
 <g partID="854553630">
  <line x1="171.129" stroke-width="1.728" y1="120.407" stroke="black" stroke-linecap="round" x2="165.836" y2="109.821"/>
 </g>
 <g partID="854552450">
  <line x1="186.45" stroke-width="1.728" y1="86.3138" stroke="black" stroke-linecap="round" x2="186.45" y2="129.385"/>
 </g>
 <g partID="854552080">
  <line x1="186.45" stroke-width="1.728" y1="129.385" stroke="black" stroke-linecap="round" x2="135.953" y2="129.385"/>
 </g>
 <g partID="854552820">
  <line x1="128.898" stroke-width="1.728" y1="93.3685" stroke="black" stroke-linecap="round" x2="186.45" y2="86.3138"/>
 </g>
 <g partID="854551710">
  <line x1="135.953" stroke-width="1.728" y1="129.385" stroke="black" stroke-linecap="round" x2="136.054" y2="124.514"/>
 </g>
 <g partID="854541550">
  <line x1="128.899" stroke-width="1.728" y1="81.2062" stroke="black" stroke-linecap="round" x2="128.898" y2="93.3685"/>
 </g>
 <g partID="854553700">
  <line x1="156.729" stroke-width="1.728" y1="120.407" stroke="black" stroke-linecap="round" x2="151.436" y2="109.821"/>
 </g>
</svg>
