G04 MADE WITH FRITZING*
G04 WWW.FRITZING.ORG*
G04 DOUBLE SIDED*
G04 HOLES PLATED*
G04 CONTOUR ON CENTER OF CONTOUR VECTOR*
%ASAXBY*%
%FSLAX23Y23*%
%MOIN*%
%OFA0B0*%
%SFA1.0B1.0*%
%ADD10C,0.075000*%
%ADD11C,0.078000*%
%ADD12C,0.070000*%
%ADD13R,0.075000X0.075000*%
%ADD14R,0.070000X0.069972*%
%ADD15C,0.024000*%
%LNCOPPER0*%
G90*
G70*
G54D10*
X1790Y869D03*
X1890Y869D03*
X490Y1769D03*
X490Y1669D03*
G54D11*
X790Y1569D03*
X790Y1669D03*
X790Y1769D03*
X890Y1569D03*
X890Y1669D03*
X890Y1769D03*
X1590Y1369D03*
X1690Y1369D03*
X1790Y1369D03*
X1890Y1369D03*
X1990Y1369D03*
X2090Y1369D03*
X1190Y1669D03*
X1290Y1669D03*
X1390Y1669D03*
X1490Y1669D03*
X1590Y1669D03*
X290Y1569D03*
X290Y1669D03*
X290Y1769D03*
G54D12*
X990Y469D03*
X1090Y469D03*
X1190Y469D03*
X1290Y469D03*
X1390Y469D03*
X1490Y469D03*
X1590Y469D03*
X1690Y469D03*
X1790Y469D03*
X1890Y469D03*
X1990Y469D03*
X2090Y469D03*
X2190Y469D03*
X2290Y469D03*
X2390Y469D03*
X990Y1069D03*
X1090Y1069D03*
X1190Y1069D03*
X1290Y1069D03*
X1390Y1069D03*
X1490Y1069D03*
X1590Y1069D03*
X1690Y1069D03*
X1790Y1069D03*
X1890Y1069D03*
X1990Y1069D03*
X2090Y1069D03*
X2190Y1069D03*
X2290Y1069D03*
X2390Y1069D03*
G54D10*
X90Y1269D03*
X490Y1269D03*
X590Y1269D03*
X990Y1269D03*
G54D11*
X1190Y269D03*
X1290Y269D03*
X1390Y269D03*
X1490Y269D03*
X1590Y269D03*
X1690Y269D03*
X1790Y269D03*
X1890Y269D03*
X1990Y269D03*
X2090Y269D03*
X2190Y269D03*
X2290Y269D03*
X2390Y269D03*
X2490Y269D03*
G54D10*
X1290Y1469D03*
X1390Y1469D03*
G54D13*
X1790Y869D03*
X490Y1769D03*
G54D14*
X990Y469D03*
G54D13*
X1290Y1469D03*
G54D15*
X1103Y1095D02*
X1277Y1444D01*
D02*
X760Y1769D02*
X320Y1769D01*
D02*
X860Y1769D02*
X820Y1769D01*
D02*
X1267Y1486D02*
X914Y1751D01*
D02*
X1388Y1569D02*
X2089Y1569D01*
D02*
X1310Y1490D02*
X1388Y1569D01*
D02*
X2089Y1569D02*
X2090Y1399D01*
D02*
X1281Y497D02*
X1099Y1042D01*
D02*
X1768Y851D02*
X1313Y487D01*
D02*
X1563Y1383D02*
X1416Y1456D01*
D02*
X1383Y1441D02*
X1297Y1097D01*
D02*
X1991Y868D02*
X1991Y971D01*
D02*
X1991Y971D02*
X1491Y971D01*
D02*
X1919Y869D02*
X1991Y868D01*
D02*
X1491Y971D02*
X1316Y1056D01*
D02*
X2693Y68D02*
X2693Y868D01*
D02*
X1991Y68D02*
X2693Y68D01*
D02*
X1990Y239D02*
X1991Y68D01*
D02*
X2693Y868D02*
X1919Y869D01*
D02*
X88Y1667D02*
X260Y1669D01*
D02*
X90Y1298D02*
X88Y1667D01*
D02*
X290Y1539D02*
X290Y1368D01*
D02*
X290Y1368D02*
X465Y1282D01*
D02*
X597Y1297D02*
X692Y1667D01*
D02*
X692Y1667D02*
X760Y1669D01*
D02*
X820Y1669D02*
X860Y1669D01*
D02*
X807Y1544D02*
X974Y1293D01*
D02*
X860Y1569D02*
X820Y1569D01*
D02*
X1277Y1495D02*
X1204Y1642D01*
D02*
X1899Y1097D02*
X1981Y1341D01*
D02*
X1799Y1097D02*
X1881Y1341D01*
D02*
X1699Y1097D02*
X1781Y1341D01*
D02*
X1204Y296D02*
X1277Y443D01*
D02*
X2104Y296D02*
X2177Y443D01*
D02*
X2492Y367D02*
X2492Y569D01*
D02*
X2492Y569D02*
X2089Y569D01*
D02*
X2290Y367D02*
X2492Y367D01*
D02*
X2290Y299D02*
X2290Y367D01*
D02*
X2089Y569D02*
X2011Y490D01*
G04 End of Copper0*
M02*